<svg xmlns="http://www.w3.org/2000/svg" width="927" height="382" fill="none" viewBox="0 0 927 382">
  <g clip-path="url(#a)">
    <path fill="#001110" d="M381.15 143.049H143.049v95.053H381.15v-95.053Z"/>
    <path fill="#0FE" d="M131.165 143.51H0v94.13h131.165v-94.13Z"/>
    <path fill="#001110" d="M238.102 381.15V0h-95.053v381.15h95.053Z"/>
  </g>
  <path fill="#001110" d="M922.51 356.269c-.667 0-1.153-.154-1.461-.461-.282-.333-.423-.756-.423-1.268v-.5c0-.512.141-.922.423-1.23.308-.333.794-.499 1.461-.499.666 0 1.14.166 1.422.499.307.308.461.718.461 1.23v.5c0 .512-.154.935-.461 1.268-.282.307-.756.461-1.422.461Zm-1.538 4.65h3.075v19.831h-3.075v-19.831Zm-4.964 19.831c-1.153 0-1.986-.307-2.498-.922-.487-.615-.795-1.384-.923-2.306h-.192c-.435 1.23-1.153 2.152-2.152 2.767-.999.615-2.191.922-3.574.922-2.101 0-3.741-.538-4.919-1.614-1.153-1.076-1.73-2.536-1.73-4.381 0-1.87.679-3.305 2.037-4.304 1.384-1 3.523-1.499 6.418-1.499h3.92v-1.96c0-1.409-.384-2.485-1.153-3.228-.768-.744-1.947-1.115-3.535-1.115-1.205 0-2.217.269-3.037.807-.794.538-1.46 1.255-1.998 2.152l-1.845-1.729c.538-1.076 1.397-1.986 2.575-2.729 1.179-.768 2.665-1.153 4.458-1.153 2.409 0 4.279.589 5.611 1.768 1.333 1.179 1.999 2.818 1.999 4.919v10.915h2.267v2.69h-1.729Zm-8.84-2.152c.769 0 1.474-.09 2.114-.269a5.172 5.172 0 0 0 1.653-.769c.461-.333.82-.717 1.076-1.153.256-.435.384-.909.384-1.422v-3.266h-4.074c-1.767 0-3.061.256-3.881.768-.794.513-1.192 1.256-1.192 2.229v.807c0 .974.346 1.73 1.038 2.268.717.538 1.678.807 2.882.807Zm-13.118 2.613c-.82 0-1.422-.205-1.806-.615-.359-.409-.538-.948-.538-1.614v-.499c0-.666.179-1.204.538-1.614.384-.41.986-.615 1.806-.615.82 0 1.409.205 1.768.615.384.41.576.948.576 1.614v.499c0 .666-.192 1.205-.576 1.614-.359.41-.948.615-1.768.615Zm-10.781-23.059h-.192l-2.268 4.497-6.418 11.683-6.418-11.683-2.267-4.497h-.193v22.598h-3.151v-26.825h4.304l7.687 14.45h.192l7.725-14.45h4.15v26.825h-3.151v-22.598Zm-27.58 22.598-2.69-7.917h-10.838l-2.69 7.917h-3.267l9.378-26.825h4.112l9.377 26.825h-3.382Zm-8.032-23.828h-.192l-4.535 13.067h9.262l-4.535-13.067Zm-12.304 23.828h-3.882l-7.033-11.26h-.077l-7.033 11.26h-3.689l8.762-13.643-8.532-13.182h3.882l6.725 10.684h.077l6.88-10.684h3.689l-8.609 13.067 8.84 13.758Zm-40.316 0v-26.825h16.372v2.844h-13.143v8.993h12.375v2.844h-12.375v9.3h13.143v2.844h-16.372Z"/>
  <path fill="#000" d="m899.42 318.999-7.031-18.113h-.953c-6.118 7.706-12.434 13.069-18.948 16.088-6.435 2.939-14.856 4.409-25.264 4.409-12.79 0-22.88-3.655-30.268-10.964-7.309-7.309-10.964-17.716-10.964-31.222 0-14.141 4.926-24.548 14.777-31.222 9.931-6.753 24.866-10.487 44.807-11.202l23.119-.715v-5.839c0-13.505-6.912-20.258-20.736-20.258-10.645 0-23.158 3.217-37.537 9.652l-12.036-24.548c15.332-8.024 32.334-12.036 51.003-12.036 17.876 0 31.58 3.893 41.113 11.678 9.534 7.786 14.301 19.623 14.301 35.512v88.78H899.42Zm-10.725-61.729-14.062.477c-10.566.318-18.431 2.225-23.595 5.72-5.164 3.496-7.746 8.819-7.746 15.969 0 10.248 5.879 15.372 17.637 15.372 8.421 0 15.134-2.423 20.139-7.269 5.084-4.846 7.627-11.281 7.627-19.305V257.27Z"/>
  <path fill="#000" d="M924.803 230.219c0-14.896-4.192-26.229-12.572-34.002l-1.728-1.51c-8.937-7.299-21.541-11.176-37.809-11.632l-3.304-.046c-18.669 0-35.671 4.012-51.004 12.036l12.036 24.548c14.38-6.435 26.893-9.652 37.538-9.652l2.509.079c12.151.791 18.227 7.517 18.227 20.179v5.839l-23.119.715c-19.941.715-34.877 4.45-44.807 11.202l-1.788 1.298c-8.658 6.694-12.989 16.667-12.989 29.924l.04 2.496c.428 12.299 4.071 21.874 10.923 28.726 6.926 6.852 16.226 10.495 27.899 10.924l2.37.04c9.105 0 16.69-1.127 22.755-3.377l2.509-1.032c6.514-3.019 12.83-8.382 18.947-16.088h.954l7.031 18.113h25.382v-88.78Zm-37.465 38.015v-9.56l-12.658.43h-.007c-10.467.315-18.024 2.206-22.873 5.489-4.732 3.203-7.15 8.066-7.15 14.843 0 4.861 1.382 8.277 3.939 10.506 2.594 2.261 6.628 3.509 12.34 3.509v1.357l-2.138-.059c-9.644-.561-14.79-5.046-15.432-13.453l-.066-1.86c0-6.703 2.267-11.802 6.805-15.294l.94-.675c4.519-3.059 11.107-4.903 19.762-5.528l3.834-.192 14.062-.477v10.964l-.034 1.483c-.297 7.337-2.826 13.278-7.593 17.822-5.005 4.846-11.719 7.269-20.14 7.269v-1.357c8.146 0 14.492-2.335 19.193-6.885l.013-.007.868-.874c4.202-4.445 6.335-10.223 6.335-17.451Zm38.823 52.123h-27.667l-.338-.868-6.501-16.749c-5.951 7.273-12.133 12.469-18.597 15.465h-.007c-6.674 3.049-15.308 4.535-25.826 4.535-13.059 0-23.524-3.74-31.222-11.354l-.007-.007c-7.634-7.634-11.36-18.431-11.36-32.182 0-13.588 4.462-23.994 13.505-30.99l1.867-1.357c10.24-6.962 25.48-10.715 45.523-11.434h.006l21.801-.675v-4.522c0-6.536-1.668-11.193-4.773-14.227-3.111-3.039-7.895-4.674-14.605-4.674-10.385 0-22.701 3.143-36.981 9.533l-1.199.537-.576-1.179-12.036-24.549-.582-1.185 1.171-.609c15.543-8.133 32.762-12.195 51.633-12.195 18.048.001 32.104 3.93 41.967 11.983 9.936 8.115 14.804 20.397 14.804 36.565v90.138ZM667.912 185.77h39.802l25.144 74.956c2.145 6.515 3.615 14.221 4.41 23.119h.715c.874-8.183 2.582-15.889 5.124-23.119l24.668-74.956h38.968l-56.367 150.27c-5.164 13.903-12.552 24.311-22.165 31.222-9.534 6.912-20.696 10.368-33.486 10.368a84.32 84.32 0 0 1-18.471-2.026v-28.838c4.369 1.032 9.136 1.549 14.3 1.549 6.435 0 12.036-1.986 16.802-5.959 4.847-3.893 8.62-9.811 11.321-17.756l2.145-6.554-52.91-132.276Z"/>
  <path fill="#000" d="m708.692 184.412.305.927 25.144 74.957.007.007.788 2.542c1.166 4.021 2.08 8.44 2.78 13.247.972-5.495 2.336-10.768 4.111-15.816l24.662-74.93.304-.934h41.908l-57.055 152.105c-4.907 13.208-11.829 23.399-20.815 30.474l-1.827 1.37c-9.785 7.093-21.232 10.626-34.281 10.626a85.699 85.699 0 0 1-18.762-2.059l-1.066-.238v-31.639l1.668.397c4.253 1.005 8.916 1.509 13.989 1.51v1.357l-3.793-.1c-3.726-.193-7.229-.675-10.507-1.449v28.838a84.14 84.14 0 0 0 16.127 1.993l2.344.033c11.99 0 22.551-3.036 31.679-9.11l1.807-1.258c9.613-6.911 17.001-17.319 22.165-31.222l56.367-150.27h-38.968l-24.668 74.956c-2.542 7.23-4.25 14.936-5.124 23.119h-.715l-.324-3.284c-.723-6.45-1.828-12.23-3.311-17.339l-.774-2.496-25.145-74.956H667.91l52.911 132.276-2.145 6.554c-2.701 7.945-6.475 13.864-11.321 17.756l-1.827 1.397c-4.353 3.041-9.346 4.562-14.976 4.562v-1.357c6.13 0 11.422-1.881 15.935-5.641l.02-.02 1.675-1.47c3.265-3.136 5.997-7.4 8.17-12.843l1.039-2.821 1.986-6.071-52.725-131.819-.741-1.861h42.781Zm-67.399-1.145c4.926 0 9.018.357 12.275 1.072l-2.741 34.083c-2.94-.795-6.515-1.192-10.725-1.192-11.599 0-20.656 2.979-27.171 8.937-6.435 5.959-9.652 14.301-9.652 25.026v67.806h-36.346v-133.23h27.527l5.363 22.404h1.788c4.131-7.468 9.692-13.466 16.683-17.994 7.071-4.608 14.737-6.912 22.999-6.912Z"/>
  <path fill="#000" d="M565.578 184.412h29.951l.251 1.04 5.091 21.291c4.189-7.298 9.747-13.209 16.684-17.703l1.37-.861c6.906-4.174 14.373-6.269 22.371-6.269 4.981 0 9.18.362 12.566 1.105l1.151.252-.092 1.178-2.873 35.711-1.576-.424c-2.789-.753-6.236-1.145-10.368-1.145-11.368 0-20.062 2.915-26.256 8.58-6.095 5.646-9.216 13.591-9.216 24.026v69.164h-39.054V184.412Zm1.357 134.587h36.346v-67.806c0-10.725 3.218-19.067 9.653-25.026 6.514-5.957 15.572-8.937 27.17-8.937l3.039.073c2.919.149 5.482.523 7.686 1.119l2.741-34.083c-2.443-.536-5.357-.872-8.739-1.006l-3.535-.066c-8.262 0-15.929 2.305-23 6.912l-2.555 1.767c-5.804 4.284-10.513 9.693-14.128 16.227h-1.788l-5.362-22.404h-27.528v133.23Zm-54.188 0h-36.942V175.521h-47.31v-30.745h131.561v30.745h-47.309v143.478Z"/>
  <path fill="#000" d="M560.056 175.521v-30.745H428.495v30.745h47.31v143.478h36.942V175.521h47.309Zm1.358 1.357h-47.31v143.479h-39.657V176.878h-47.309v-33.459h134.276v33.459Z"/>
  <path fill="#fff" d="m736.61 271.34 2.676 1.163-19.81 45.565-2.676-1.163z"/>
  <defs>
    <clipPath id="a">
      <path fill="#fff" d="M0 0h381.15v381.15H0z"/>
    </clipPath>
  </defs>
</svg>
