<svg xmlns="http://www.w3.org/2000/svg" xmlns:xlink="http://www.w3.org/1999/xlink" width="500" zoomAndPan="magnify" viewBox="0 0 375 225" height="300" preserveAspectRatio="xMidYMid meet" version="1.2"><defs><clipPath id="2c1571ebfb"><path d="M 22.5 48.386719 L 352.5 48.386719 L 352.5 133 L 22.5 133 Z M 22.5 48.386719 "/></clipPath><clipPath id="81581c3e97"><path d="M 153 150 L 341 150 L 341 176.636719 L 153 176.636719 Z M 153 150 "/></clipPath><clipPath id="59ce1b6875"><path d="M 22.5 136 L 341 136 L 341 147 L 22.5 147 Z M 22.5 136 "/></clipPath></defs><g id="04f6097a61"><g clip-rule="nonzero" clip-path="url(#2c1571ebfb)"><path style=" stroke:none;fill-rule:evenodd;fill:#090908;fill-opacity:1;" d="M 97.175781 124.191406 C 94.722656 126.832031 91.894531 128.90625 88.6875 130.414062 C 85.484375 131.921875 81.898438 132.675781 78.128906 132.675781 C 74.546875 132.675781 71.152344 131.921875 68.132812 130.601562 C 65.117188 129.28125 62.289062 127.394531 60.027344 125.132812 C 57.761719 122.683594 55.878906 120.042969 54.558594 116.835938 C 53.238281 113.628906 52.484375 110.234375 52.484375 106.652344 C 52.484375 103.070312 53.046875 99.675781 54.179688 96.46875 C 55.3125 93.265625 57.007812 90.4375 59.082031 88.171875 C 61.15625 85.722656 63.796875 84.023438 66.625 82.515625 C 69.644531 81.195312 72.847656 80.441406 76.429688 80.441406 C 81.898438 80.441406 86.804688 81.949219 90.574219 85.15625 C 94.535156 88.171875 97.363281 92.132812 98.871094 97.035156 C 99.4375 98.542969 99.8125 100.429688 100.191406 102.503906 C 100.570312 104.578125 100.570312 107.40625 100.191406 110.613281 C 100.191406 110.992188 100.003906 111.367188 99.8125 111.746094 C 99.4375 112.121094 99.058594 112.121094 98.683594 112.121094 L 66.4375 112.121094 C 67.570312 114.195312 69.078125 116.082031 71.152344 117.402344 C 73.226562 118.722656 75.488281 119.476562 78.128906 119.476562 C 81.144531 119.476562 83.785156 118.535156 86.238281 116.648438 L 87.933594 115.140625 C 88.6875 114.382812 89.441406 114.382812 90.386719 115.140625 L 97.363281 121.738281 C 97.738281 122.492188 97.738281 123.246094 97.175781 124.191406 Z M 97.175781 124.191406 Z M 142.621094 61.960938 L 142.621094 55.171875 C 142.621094 54.796875 142.808594 54.230469 142.996094 53.851562 C 143.1875 53.476562 143.75 53.289062 144.316406 53.289062 L 153.933594 53.289062 C 154.3125 53.289062 154.878906 53.476562 155.066406 53.851562 C 155.441406 54.230469 155.441406 54.609375 155.441406 55.171875 L 155.441406 130.789062 C 155.441406 131.921875 154.878906 132.488281 153.746094 132.488281 L 144.128906 132.488281 C 142.996094 132.488281 142.429688 131.921875 142.429688 130.789062 L 142.429688 129.28125 C 138.472656 131.542969 134.132812 132.675781 129.421875 132.675781 C 125.835938 132.675781 122.441406 131.921875 119.425781 130.601562 C 116.410156 129.28125 113.578125 127.394531 111.316406 125.132812 C 109.054688 122.683594 107.167969 120.042969 105.847656 116.835938 C 104.527344 113.628906 103.773438 110.234375 103.773438 106.652344 C 103.773438 103.070312 104.527344 99.675781 105.847656 96.46875 C 107.167969 93.265625 109.054688 90.4375 111.316406 88.171875 C 113.578125 85.722656 116.410156 84.023438 119.425781 82.515625 C 122.441406 81.195312 125.835938 80.441406 129.421875 80.441406 C 134.132812 80.441406 138.472656 81.574219 142.429688 84.023438 Z M 142.621094 61.960938 Z M 204.847656 124.191406 C 202.398438 126.832031 199.570312 128.90625 196.363281 130.414062 C 193.15625 131.921875 189.574219 132.675781 185.804688 132.675781 C 182.21875 132.675781 178.824219 131.921875 175.808594 130.601562 C 172.792969 129.28125 169.960938 127.394531 167.699219 125.132812 C 165.4375 122.683594 163.550781 120.042969 162.230469 116.835938 C 160.910156 113.628906 160.15625 110.234375 160.15625 106.652344 C 160.15625 103.070312 160.722656 99.675781 161.855469 96.46875 C 162.984375 93.265625 164.683594 90.4375 166.757812 88.171875 C 168.832031 85.722656 171.472656 84.023438 174.300781 82.515625 C 177.316406 81.195312 180.523438 80.441406 184.105469 80.441406 C 189.574219 80.441406 194.476562 81.949219 198.25 85.15625 C 202.207031 88.171875 205.039062 92.132812 206.546875 97.035156 C 207.113281 98.542969 207.488281 100.429688 207.867188 102.503906 C 208.242188 104.578125 208.242188 107.40625 207.867188 110.613281 C 207.867188 110.992188 207.675781 111.367188 207.488281 111.746094 C 207.113281 112.121094 206.734375 112.121094 206.355469 112.121094 L 174.300781 112.121094 C 175.429688 114.195312 176.941406 116.082031 179.015625 117.402344 C 181.089844 118.722656 183.351562 119.476562 185.992188 119.476562 C 189.007812 119.476562 191.648438 118.535156 194.101562 116.648438 L 195.796875 115.140625 C 196.550781 114.382812 197.304688 114.382812 198.25 115.140625 L 205.226562 121.738281 C 205.601562 122.492188 205.601562 123.246094 204.847656 124.191406 Z M 204.847656 124.191406 Z M 269.339844 106.464844 C 269.339844 102.882812 270.09375 99.488281 271.414062 96.28125 C 272.734375 93.074219 274.621094 90.246094 276.882812 87.984375 C 279.144531 85.535156 281.972656 83.835938 284.992188 82.328125 C 288.007812 81.007812 291.402344 80.253906 294.984375 80.253906 C 298.570312 80.253906 301.960938 81.007812 305.167969 82.328125 C 308.375 83.648438 311.015625 85.535156 313.464844 87.984375 C 315.730469 90.4375 317.613281 93.074219 318.933594 96.28125 C 320.253906 99.488281 321.007812 102.882812 321.007812 106.464844 C 321.007812 110.046875 320.253906 113.628906 318.933594 116.648438 C 317.613281 119.851562 315.730469 122.492188 313.464844 124.945312 C 311.203125 127.394531 308.375 129.09375 305.167969 130.414062 C 301.960938 131.734375 298.570312 132.488281 294.984375 132.488281 C 291.402344 132.488281 288.007812 131.734375 284.992188 130.414062 C 281.785156 129.09375 279.144531 127.207031 276.882812 124.945312 C 274.621094 122.492188 272.734375 119.851562 271.414062 116.648438 C 270.09375 113.628906 269.339844 110.234375 269.339844 106.464844 Z M 269.339844 106.464844 Z M 337.039062 132.300781 L 327.421875 132.300781 C 326.289062 132.300781 325.722656 131.734375 325.722656 130.601562 L 325.722656 82.328125 C 325.722656 81.949219 325.910156 81.574219 326.101562 81.195312 C 326.476562 80.820312 326.855469 80.820312 327.421875 80.820312 L 337.039062 80.820312 C 337.414062 80.820312 337.792969 81.007812 338.167969 81.195312 C 338.546875 81.574219 338.546875 81.949219 338.546875 82.328125 L 338.546875 84.214844 C 340.429688 83.082031 342.503906 82.328125 344.578125 81.574219 C 346.652344 81.007812 348.917969 80.628906 351.367188 80.628906 C 352.5 80.628906 353.066406 81.382812 353.066406 82.515625 L 353.066406 91.945312 C 352.878906 93.074219 352.3125 93.640625 351.367188 93.640625 C 349.671875 93.640625 347.972656 94.019531 346.464844 94.585938 C 344.957031 95.152344 343.636719 96.09375 342.503906 97.226562 C 341.375 98.355469 340.429688 99.675781 339.675781 101.183594 C 338.921875 102.691406 338.546875 104.390625 338.546875 106.085938 L 338.546875 130.414062 C 338.546875 131.734375 337.980469 132.300781 337.039062 132.300781 Z M 337.039062 132.300781 Z M 224.460938 132.300781 L 214.84375 132.300781 C 213.710938 132.300781 213.144531 131.734375 213.144531 130.601562 C 213.144531 113.820312 208.808594 92.886719 226.34375 83.460938 C 230.117188 81.382812 234.265625 80.441406 238.792969 80.441406 C 242.375 80.441406 245.769531 81.195312 248.972656 82.515625 C 249.730469 82.894531 250.292969 83.082031 251.046875 83.460938 L 251.046875 68.5625 L 248.597656 66.675781 C 248.03125 66.488281 242.941406 66.863281 241.621094 66.863281 L 238.980469 62.152344 L 232.757812 62.152344 C 231.625 62.152344 232.945312 60.074219 234.832031 59.886719 C 236.71875 59.699219 236.527344 60.265625 240.675781 60.265625 C 244.824219 60.265625 253.6875 57.058594 253.6875 57.058594 C 253.6875 57.058594 255.574219 56.492188 255.953125 53.289062 C 256.140625 50.082031 255.953125 49.140625 257.269531 48.761719 C 258.589844 48.382812 260.289062 48.761719 260.476562 50.835938 C 260.664062 52.910156 259.34375 55.925781 260.476562 56.683594 C 261.609375 57.246094 263.304688 58 263.304688 58 L 276.316406 59.511719 C 278.957031 59.886719 278.769531 58.191406 281.972656 59.132812 C 282.539062 59.320312 283.484375 60.265625 283.105469 60.453125 C 281.410156 61.207031 275.941406 61.207031 275.941406 61.394531 L 274.242188 65.921875 L 266.886719 66.488281 L 264.625 67.617188 L 264.625 79.5 L 264.8125 130.414062 C 264.8125 131.167969 264.625 131.542969 264.4375 131.734375 C 264.058594 131.921875 263.683594 131.921875 263.304688 131.921875 L 253.6875 131.921875 C 252.746094 131.921875 252.179688 131.542969 251.992188 130.789062 L 251.992188 106.464844 C 251.992188 105.332031 251.804688 104.390625 251.613281 103.449219 C 251.425781 103.257812 251.425781 103.070312 251.425781 102.882812 L 251.425781 102.691406 C 251.238281 102.316406 251.046875 101.75 250.859375 101.375 C 250.105469 99.675781 249.351562 98.355469 248.03125 97.226562 C 246.898438 95.90625 245.390625 95.152344 243.882812 94.394531 C 242.375 93.640625 240.675781 93.453125 238.792969 93.453125 C 237.09375 93.453125 235.398438 93.832031 233.886719 94.394531 C 232.378906 95.152344 231.058594 95.90625 229.929688 97.035156 C 228.796875 98.167969 227.855469 99.488281 227.101562 100.996094 C 226.347656 102.503906 225.96875 104.203125 225.96875 105.898438 L 225.96875 130.789062 C 226.15625 131.734375 225.589844 132.300781 224.460938 132.300781 Z M 224.460938 132.300781 Z M 282.351562 106.464844 C 282.351562 110.046875 283.671875 113.253906 286.121094 115.703125 C 288.574219 118.34375 291.589844 119.476562 295.175781 119.476562 C 297.058594 119.476562 298.570312 119.097656 300.265625 118.535156 C 301.773438 117.777344 303.28125 116.835938 304.414062 115.703125 C 305.546875 114.574219 306.488281 113.066406 307.242188 111.554688 C 307.996094 110.046875 308.1875 108.351562 308.1875 106.464844 C 308.1875 104.578125 307.808594 102.882812 307.242188 101.375 C 306.488281 99.675781 305.734375 98.355469 304.414062 97.035156 C 303.28125 95.90625 301.773438 94.960938 300.265625 94.207031 C 298.757812 93.453125 297.058594 93.265625 295.175781 93.265625 C 293.289062 93.265625 291.78125 93.640625 290.082031 94.207031 C 288.574219 94.960938 287.253906 95.90625 286.121094 97.035156 C 284.992188 98.167969 284.046875 99.675781 283.484375 101.375 C 282.539062 102.882812 282.351562 104.578125 282.351562 106.464844 Z M 282.351562 106.464844 Z M 184.105469 93.265625 C 181.652344 93.265625 179.390625 94.019531 177.695312 95.339844 C 175.996094 96.660156 174.675781 98.355469 173.921875 100.429688 L 194.101562 100.429688 C 193.347656 98.355469 192.027344 96.660156 190.328125 95.339844 C 188.441406 93.832031 186.558594 93.265625 184.105469 93.265625 Z M 184.105469 93.265625 Z M 116.785156 106.464844 C 116.785156 110.046875 118.105469 113.253906 120.558594 115.703125 C 123.007812 118.34375 126.027344 119.476562 129.609375 119.476562 C 131.304688 119.476562 133.003906 119.097656 134.511719 118.535156 C 136.019531 117.777344 137.339844 117.023438 138.660156 115.894531 C 139.792969 114.761719 140.921875 113.441406 141.488281 111.933594 C 142.242188 110.425781 142.621094 108.726562 142.621094 107.03125 L 142.621094 106.464844 C 142.621094 104.578125 142.242188 102.882812 141.675781 101.375 C 140.921875 99.675781 139.980469 98.355469 138.847656 97.035156 C 137.71875 95.90625 136.207031 94.960938 134.699219 94.207031 C 133.191406 93.453125 131.496094 93.265625 129.609375 93.265625 C 127.722656 93.265625 126.214844 93.640625 124.515625 94.207031 C 123.007812 94.960938 121.5 95.90625 120.558594 97.035156 C 119.425781 98.167969 118.484375 99.675781 117.917969 101.375 C 117.164062 102.882812 116.785156 104.578125 116.785156 106.464844 Z M 116.785156 106.464844 Z M 76.429688 93.265625 C 73.980469 93.265625 71.71875 94.019531 70.019531 95.339844 C 68.324219 96.660156 67.003906 98.355469 66.25 100.429688 L 86.238281 100.429688 C 85.484375 98.355469 84.164062 96.660156 82.464844 95.339844 C 80.769531 93.832031 78.695312 93.265625 76.429688 93.265625 Z M 34.191406 132.109375 C 35.324219 132.109375 35.886719 131.542969 35.886719 130.414062 L 35.886719 105.898438 C 35.886719 104.011719 36.265625 102.503906 37.019531 100.996094 C 37.773438 99.488281 38.71875 98.167969 39.847656 96.847656 C 40.980469 95.714844 42.300781 94.773438 43.996094 94.207031 C 45.503906 93.640625 47.203125 93.265625 48.898438 93.265625 C 49.84375 93.265625 50.410156 92.699219 50.597656 91.566406 L 50.597656 82.140625 C 50.597656 81.007812 50.03125 80.253906 48.898438 80.253906 C 46.636719 80.253906 44.375 80.628906 42.113281 81.195312 C 39.847656 81.761719 37.773438 82.703125 35.886719 83.835938 L 35.886719 81.949219 C 35.886719 81.574219 35.699219 81.195312 35.511719 80.820312 C 35.132812 80.441406 34.757812 80.441406 34.378906 80.441406 L 24.574219 80.441406 C 24.007812 80.441406 23.632812 80.628906 23.253906 80.820312 C 22.878906 81.007812 22.878906 81.574219 22.878906 81.949219 L 22.878906 130.601562 C 22.878906 131.734375 23.441406 132.300781 24.574219 132.300781 L 34.191406 132.300781 Z M 34.191406 132.109375 "/></g><g clip-rule="nonzero" clip-path="url(#81581c3e97)"><path style=" stroke:none;fill-rule:evenodd;fill:#090908;fill-opacity:1;" d="M 153.933594 174.726562 C 155.253906 175.480469 158.082031 176.234375 160.910156 176.234375 C 167.699219 176.234375 170.90625 172.652344 170.90625 168.503906 C 170.90625 165.109375 168.832031 162.847656 164.496094 161.152344 C 161.289062 160.019531 159.96875 159.265625 159.96875 157.757812 C 159.96875 156.4375 161.101562 155.304688 163.550781 155.304688 C 166.003906 155.304688 167.699219 156.058594 168.644531 156.4375 L 169.960938 151.910156 C 168.453125 151.15625 166.378906 150.589844 163.550781 150.589844 C 157.707031 150.589844 154.121094 153.796875 154.121094 157.945312 C 154.121094 161.527344 156.761719 163.789062 160.910156 165.300781 C 163.929688 166.242188 165.058594 167.183594 165.058594 168.691406 C 165.058594 170.390625 163.738281 171.332031 161.101562 171.332031 C 158.648438 171.332031 156.386719 170.578125 154.878906 169.824219 Z M 153.933594 174.726562 Z M 194.855469 160.960938 L 185.804688 160.960938 L 185.804688 155.871094 L 195.421875 155.871094 L 195.421875 151.34375 L 180.144531 151.34375 L 180.144531 176.046875 L 195.984375 176.046875 L 195.984375 171.332031 L 185.804688 171.332031 L 185.804688 165.488281 L 194.855469 165.488281 Z M 194.855469 160.960938 Z M 225.78125 161.90625 L 216.539062 161.90625 L 216.539062 166.242188 L 220.3125 166.242188 L 220.3125 171.332031 C 219.933594 171.523438 218.804688 171.710938 217.671875 171.710938 C 213.144531 171.710938 209.941406 168.691406 209.941406 163.601562 C 209.941406 158.132812 213.523438 155.492188 218.238281 155.492188 C 220.878906 155.492188 222.574219 155.871094 223.894531 156.625 L 225.027344 152.097656 C 223.894531 151.535156 221.441406 150.96875 218.238281 150.96875 C 210.128906 150.96875 204.09375 155.683594 204.09375 163.789062 C 204.09375 167.375 205.414062 170.578125 207.675781 172.84375 C 209.941406 174.917969 213.144531 176.046875 217.671875 176.046875 C 220.878906 176.046875 224.269531 175.292969 225.96875 174.726562 L 225.96875 161.90625 Z M 225.78125 161.90625 Z M 235.585938 151.34375 L 235.585938 165.109375 C 235.585938 173.03125 239.167969 176.425781 245.390625 176.425781 C 251.804688 176.425781 255.761719 172.84375 255.761719 165.109375 L 255.761719 151.34375 L 250.105469 151.34375 L 250.105469 165.488281 C 250.105469 169.824219 248.410156 171.898438 245.578125 171.898438 C 242.75 171.898438 241.054688 169.636719 241.054688 165.488281 L 241.054688 151.34375 Z M 235.585938 151.34375 Z M 265.945312 175.859375 L 271.414062 175.859375 L 271.414062 166.054688 L 273.113281 166.054688 C 275.375 166.054688 276.503906 166.808594 277.261719 170.011719 C 278.015625 173.03125 278.578125 175.105469 278.957031 175.859375 L 284.613281 175.859375 C 284.046875 174.917969 283.484375 171.710938 282.539062 168.882812 C 281.972656 166.617188 281.03125 164.921875 279.335938 164.355469 L 279.335938 164.167969 C 281.410156 163.414062 283.671875 161.339844 283.671875 158.132812 C 283.671875 155.871094 282.917969 154.171875 281.410156 152.851562 C 279.710938 151.535156 277.070312 150.96875 273.488281 150.96875 C 270.472656 150.96875 267.832031 151.15625 265.945312 151.535156 Z M 265.945312 175.859375 Z M 271.414062 155.492188 C 271.792969 155.304688 272.546875 155.304688 273.867188 155.304688 C 276.503906 155.304688 278.015625 156.4375 278.015625 158.699219 C 278.015625 160.773438 276.316406 162.28125 273.488281 162.28125 L 271.414062 162.28125 Z M 271.414062 155.492188 Z M 303.847656 150.777344 C 296.496094 150.777344 291.78125 156.246094 291.78125 163.601562 C 291.78125 170.578125 296.117188 176.234375 303.472656 176.234375 C 310.824219 176.234375 315.539062 171.332031 315.539062 163.226562 C 315.730469 156.4375 311.578125 150.777344 303.847656 150.777344 Z M 303.847656 150.777344 Z M 303.847656 155.304688 C 307.621094 155.304688 309.882812 159.074219 309.882812 163.601562 C 309.882812 168.316406 307.621094 171.898438 303.847656 171.898438 C 300.078125 171.898438 297.8125 168.503906 297.8125 163.601562 C 297.8125 158.886719 299.886719 155.304688 303.847656 155.304688 Z M 303.847656 155.304688 Z M 323.648438 174.726562 C 324.96875 175.480469 327.796875 176.234375 330.625 176.234375 C 337.414062 176.234375 340.621094 172.652344 340.621094 168.503906 C 340.621094 165.109375 338.546875 162.847656 334.207031 161.152344 C 331.003906 160.019531 329.683594 159.265625 329.683594 157.757812 C 329.683594 156.4375 330.8125 155.304688 333.265625 155.304688 C 335.71875 155.304688 337.414062 156.058594 338.355469 156.4375 L 339.675781 151.910156 C 338.167969 151.15625 336.28125 150.589844 333.453125 150.589844 C 327.609375 150.589844 324.027344 153.796875 324.027344 157.945312 C 324.027344 161.527344 326.664062 163.789062 330.8125 165.300781 C 333.832031 166.242188 334.960938 167.183594 334.960938 168.691406 C 334.960938 170.390625 333.644531 171.332031 331.003906 171.332031 C 328.550781 171.332031 326.289062 170.578125 324.78125 169.824219 Z M 323.648438 174.726562 "/></g><g clip-rule="nonzero" clip-path="url(#59ce1b6875)"><path style=" stroke:none;fill-rule:evenodd;fill:#090908;fill-opacity:1;" d="M 24.386719 136.636719 L 338.546875 136.636719 C 339.300781 136.636719 340.054688 137.203125 340.054688 138.144531 L 340.054688 144.554688 C 340.054688 145.308594 339.488281 146.066406 338.546875 146.066406 L 24.386719 146.066406 C 23.632812 146.066406 22.878906 145.5 22.878906 144.554688 L 22.878906 138.144531 C 22.878906 137.390625 23.632812 136.636719 24.386719 136.636719 Z M 24.386719 136.636719 "/></g></g></svg>