<svg width="100" height="38" viewBox="0 0 100 38" fill="none" xmlns="http://www.w3.org/2000/svg">
<path d="M10.585 4.38647H17.6418V32.6137H10.585V4.38647Z" fill="#0A3A3A"/>
<path fill-rule="evenodd" clip-rule="evenodd" d="M28.2271 22.0285L28.2271 14.9717L10.585 14.9717L10.585 22.0285L28.2271 22.0285ZM9.52651 22.0285L9.52651 14.9717L-0.000173569 14.9717L-0.000173877 22.0285L9.52651 22.0285Z" fill="#0A3A3A"/>
<path d="M43.4058 31V9.05051H35.0392V6.61168H54.5499V9.05051H46.1833V31H43.4058ZM54.5576 31V13.7249H57.098V18.1284H57.2674V31H54.5576ZM57.2674 21.9899L56.827 17.8913C57.2335 16.4235 57.9561 15.3057 58.9949 14.5379C60.0337 13.7701 61.2305 13.3862 62.5854 13.3862C63.1499 13.3862 63.5338 13.4314 63.7371 13.5217V16.1299C63.6242 16.0847 63.4661 16.0622 63.2628 16.0622C63.0596 16.0396 62.8112 16.0283 62.5177 16.0283C60.8014 16.0283 59.4917 16.5477 58.5884 17.5864C57.7077 18.6026 57.2674 20.0704 57.2674 21.9899ZM68.7502 37.9439L72.6117 28.9676L73.2214 28.0192L78.8782 13.7249H81.6557L71.6294 37.9439H68.7502ZM72.9166 31.1694L65.1597 13.7249H68.1405L74.8134 29.3402L72.9166 31.1694ZM95.0629 31C94.9726 30.6161 94.9049 30.1758 94.8597 29.679C94.8371 29.1822 94.8258 28.5499 94.8258 27.7821H94.6565V19.5172C94.6565 18.2074 94.3516 17.2477 93.7419 16.638C93.1548 16.0057 92.1951 15.6896 90.8627 15.6896C89.553 15.6896 88.5029 15.9605 87.7126 16.5025C86.9448 17.0219 86.5157 17.7671 86.4254 18.7381H83.8172C83.9301 17.067 84.6302 15.7573 85.9173 14.8089C87.2045 13.8604 88.8868 13.3862 90.9643 13.3862C93.1096 13.3862 94.7016 13.8943 95.7404 14.9105C96.7792 15.9267 97.2985 17.4509 97.2985 19.4833V27.7821C97.2985 28.2789 97.3324 28.7983 97.4002 29.3402C97.4679 29.8596 97.5582 30.4129 97.6711 31H95.0629ZM89.1352 31.3387C87.3513 31.3387 85.9286 30.9097 84.8673 30.0516C83.8285 29.1709 83.3091 27.974 83.3091 26.4611C83.3091 24.9481 83.8285 23.7738 84.8673 22.9383C85.906 22.1028 87.419 21.5157 89.4062 21.1769L95.4355 20.1607V22.3963L89.8127 23.277C88.5481 23.4803 87.5884 23.819 86.9335 24.2932C86.2786 24.7674 85.9512 25.4562 85.9512 26.3594C85.9512 27.2401 86.2448 27.9063 86.8319 28.3579C87.4416 28.8096 88.3336 29.0354 89.5078 29.0354C91.0208 29.0354 92.2515 28.6967 93.1999 28.0192C94.171 27.3192 94.6565 26.4159 94.6565 25.3094L95.0968 27.7144C94.7355 28.866 94.0242 29.758 92.9628 30.3903C91.9241 31.0226 90.6482 31.3387 89.1352 31.3387Z" fill="#0A3A3A"/>
</svg>
